<svg width="321" height="340" viewBox="0 0 321 340" fill="none" xmlns="http://www.w3.org/2000/svg">
<mask id="mask0_183_226" style="mask-type:alpha" maskUnits="userSpaceOnUse" x="14" y="48" width="293" height="292">
<path d="M160.5 340C241.083 340 306.409 274.761 306.409 194.286C306.409 113.81 241.083 48.5714 160.5 48.5714C79.9166 48.5714 14.5909 113.81 14.5909 194.286C14.5909 274.761 79.9166 340 160.5 340Z" fill="white"/>
</mask>
<g mask="url(#mask0_183_226)">
<path d="M160.5 340C241.083 340 306.409 274.761 306.409 194.286C306.409 113.81 241.083 48.5714 160.5 48.5714C79.9166 48.5714 14.5909 113.81 14.5909 194.286C14.5909 274.761 79.9166 340 160.5 340Z" fill="#E6E6E6"/>
<path d="M306.409 48.5714H14.5909V340H306.409V48.5714Z" fill="#93FFF2"/>
</g>
<mask id="mask1_183_226" style="mask-type:alpha" maskUnits="userSpaceOnUse" x="0" y="0" width="321" height="340">
<path d="M14.5909 194.286C14.5909 274.761 79.9166 340 160.5 340C241.083 340 306.409 274.761 306.409 194.286H321V0H0V194.286H14.5909Z" fill="white"/>
</mask>
<g mask="url(#mask1_183_226)">
<mask id="mask2_183_226" style="mask-type:alpha" maskUnits="userSpaceOnUse" x="38" y="43" width="245" height="297">
<path d="M189.682 219.313V241.643H194.545C242.896 241.643 282.091 280.786 282.091 329.071V340H38.9091V329.071C38.9091 280.786 78.1046 241.643 126.455 241.643H131.318V219.313C110.359 209.37 95.2935 189.049 92.7801 164.999C85.6977 163.999 80.25 157.92 80.25 150.571V133.571C80.25 126.351 85.5083 120.358 92.4091 119.201V111.714C92.4091 74.1589 122.894 43.7143 160.5 43.7143C198.106 43.7143 228.591 74.1589 228.591 111.714V119.201C235.492 120.358 240.75 126.351 240.75 133.571V150.571C240.75 157.92 235.302 163.999 228.22 164.999C225.707 189.049 210.641 209.37 189.682 219.313Z" fill="white"/>
</mask>
<g mask="url(#mask2_183_226)">
<path d="M189.682 219.313V241.643H194.545C242.896 241.643 282.091 280.786 282.091 329.071V340H38.9091V329.071C38.9091 280.786 78.1046 241.643 126.455 241.643H131.318V219.313C110.359 209.37 95.2935 189.049 92.7801 164.999C85.6977 163.999 80.25 157.92 80.25 150.571V133.571C80.25 126.351 85.5083 120.358 92.4091 119.201V111.714C92.4091 74.1589 122.894 43.7143 160.5 43.7143C198.106 43.7143 228.591 74.1589 228.591 111.714V119.201C235.492 120.358 240.75 126.351 240.75 133.571V150.571C240.75 157.92 235.302 163.999 228.22 164.999C225.707 189.049 210.641 209.37 189.682 219.313Z" fill="#D0C6AC"/>
<path d="M359.909 43.7143H38.9091V383.714H359.909V43.7143Z" fill="#AE5D29"/>
<path fill-rule="evenodd" clip-rule="evenodd" d="M228.591 139.643V167.571C228.591 205.127 198.106 235.571 160.5 235.571C122.894 235.571 92.4091 205.127 92.4091 167.571V139.643V157.857C92.4091 195.413 122.894 225.857 160.5 225.857C198.106 225.857 228.591 195.413 228.591 157.857V139.643Z" fill="black" fill-opacity="0.1"/>
</g>
<mask id="mask3_183_226" style="mask-type:alpha" maskUnits="userSpaceOnUse" x="38" y="222" width="245" height="118">
<path fill-rule="evenodd" clip-rule="evenodd" d="M131.318 222.3C109.531 224.735 92.7494 231.384 92.4142 248.497C60.9735 261.761 38.9091 292.843 38.9091 329.071V340H282.091V329.071C282.091 292.843 260.027 261.761 228.586 248.497C228.251 231.384 211.469 224.735 189.682 222.3V245.286C189.682 261.381 176.617 274.429 160.5 274.429C144.383 274.429 131.318 261.381 131.318 245.286V222.3Z" fill="white"/>
</mask>
<g mask="url(#mask3_183_226)">
<path fill-rule="evenodd" clip-rule="evenodd" d="M131.318 222.3C109.531 224.735 92.7494 231.384 92.4142 248.497C60.9735 261.761 38.9091 292.843 38.9091 329.071V340H282.091V329.071C282.091 292.843 260.027 261.761 228.586 248.497C228.251 231.384 211.469 224.735 189.682 222.3V245.286C189.682 261.381 176.617 274.429 160.5 274.429C144.383 274.429 131.318 261.381 131.318 245.286V222.3Z" fill="#B7C1DB"/>
<path d="M321 206.429H0V340H321V206.429Z" fill="#262E33"/>
<path fill-rule="evenodd" clip-rule="evenodd" d="M124.023 281.397V340H115.511V277.04C118.191 278.63 121.04 280.088 124.023 281.397ZM205.489 277.04V326.036C205.489 328.383 203.583 330.286 201.233 330.286C198.883 330.286 196.977 328.383 196.977 326.036V281.397C199.96 280.088 202.809 278.63 205.489 277.04Z" fill="#F4F4F4"/>
<path fill-rule="evenodd" clip-rule="evenodd" d="M110.599 221.88C92.2989 225.336 79.6421 232.224 79.6421 245.659C79.6421 269.596 119.813 289 160.5 289C201.187 289 241.358 269.596 241.358 245.659C241.358 232.224 228.701 225.336 210.401 221.88C221.447 225.948 228.591 232.786 228.591 244.165C228.591 268.927 194.763 289 160.5 289C126.237 289 92.4091 268.927 92.4091 244.165C92.4091 232.786 99.5527 225.948 110.599 221.88Z" fill="black" fill-opacity="0.16"/>
</g>
<path d="M143.477 182.143C143.477 188.666 150.965 193.071 160.5 193.071C170.035 193.071 177.523 188.666 177.523 182.143C177.523 180.802 176.368 179.714 175.091 179.714C173.519 179.714 172.817 180.813 172.659 182.143C171.148 185.71 167.41 187.87 160.5 188.214C153.59 187.87 149.852 185.71 148.341 182.143C148.183 180.813 147.481 179.714 145.909 179.714C144.632 179.714 143.477 180.802 143.477 182.143Z" fill="black" fill-opacity="0.6"/>
<path fill-rule="evenodd" clip-rule="evenodd" d="M145.909 157.857C145.909 163.222 152.442 167.571 160.5 167.571C168.558 167.571 175.091 163.222 175.091 157.857" fill="black" fill-opacity="0.16"/>
<path fill-rule="evenodd" clip-rule="evenodd" d="M112.058 136.543C114.304 131.93 119.359 128.714 125.236 128.714C131.092 128.714 136.132 131.908 138.389 136.494C139.06 137.857 138.106 138.972 137.143 138.146C134.163 135.587 129.93 133.989 125.236 133.989C120.688 133.989 116.574 135.489 113.612 137.908C112.528 138.793 111.402 137.892 112.058 136.543Z" fill="black" fill-opacity="0.6"/>
<path fill-rule="evenodd" clip-rule="evenodd" d="M182.581 136.543C184.826 131.93 189.882 128.714 195.758 128.714C201.614 128.714 206.655 131.908 208.912 136.494C209.582 137.857 208.628 138.972 207.666 138.146C204.686 135.587 200.453 133.989 195.758 133.989C191.21 133.989 187.096 135.489 184.134 137.908C183.051 138.793 181.924 137.892 182.581 136.543Z" fill="black" fill-opacity="0.6"/>
<path fill-rule="evenodd" clip-rule="evenodd" d="M120.091 101.488L121.199 100.999C127.572 98.4722 137.233 99.5315 143.14 102.363C143.83 102.694 143.358 103.763 142.652 103.709C124.512 102.311 112.299 113.6 108.15 121.243C108.027 121.47 107.656 121.495 107.564 121.284C104.758 114.825 112.974 104.302 120.091 101.488Z" fill="black" fill-opacity="0.6"/>
<path fill-rule="evenodd" clip-rule="evenodd" d="M200.909 101.488L199.801 100.999C193.428 98.4722 183.767 99.5315 177.86 102.363C177.17 102.694 177.642 103.763 178.348 103.709C196.488 102.311 208.701 113.6 212.85 121.243C212.973 121.47 213.344 121.495 213.436 121.284C216.242 114.825 208.026 104.302 200.909 101.488Z" fill="black" fill-opacity="0.6"/>
<mask id="mask4_183_226" style="mask-type:alpha" maskUnits="userSpaceOnUse" x="0" y="0" width="321" height="340">
<path d="M321 0H0V340H321V0Z" fill="white"/>
</mask>
<g mask="url(#mask4_183_226)">
<mask id="mask5_183_226" style="mask-type:alpha" maskUnits="userSpaceOnUse" x="91" y="119" width="139" height="109">
<path fill-rule="evenodd" clip-rule="evenodd" d="M181.691 206.633C178.635 209.419 175.379 210.672 171.264 209.796C170.556 209.645 167.669 204.285 160.5 204.285C153.33 204.285 150.444 209.645 149.735 209.796C145.62 210.672 142.364 209.419 139.308 206.633C133.563 201.396 128.785 194.174 131.656 186.295C133.152 182.188 135.586 177.679 140.013 176.37C144.74 174.973 151.377 176.368 156.141 175.414C157.684 175.104 159.37 174.555 160.5 173.643C161.63 174.555 163.316 175.104 164.859 175.414C169.623 176.368 176.26 174.973 180.987 176.37C185.414 177.679 187.847 182.188 189.344 186.295C192.215 194.174 187.437 201.396 181.691 206.633ZM228.689 119C224.543 129.2 226.144 141.899 225.377 152.606C224.754 161.31 222.921 174.354 215.183 179.975C211.226 182.849 204.023 187.68 198.852 186.332C195.293 185.405 194.913 175.209 190.235 171.393C184.93 167.064 178.305 165.162 171.625 165.456C168.742 165.583 162.913 165.553 160.5 167.766C158.087 165.553 152.258 165.583 149.376 165.456C142.695 165.162 136.07 167.064 130.764 171.393C126.087 175.209 125.708 185.405 122.148 186.332C116.978 187.68 109.775 182.849 105.817 179.975C98.0782 174.354 96.2467 161.31 95.6226 152.606C94.8556 141.899 96.4571 129.2 92.3104 119C90.2931 119 91.6237 138.585 91.6237 138.585V163.303C91.6621 181.867 103.273 209.653 129.018 220.263C135.314 222.858 149.575 227.071 160.5 227.071C171.424 227.071 185.686 223.259 191.982 220.664C217.726 210.054 229.338 181.867 229.377 163.303V138.585C229.377 138.585 230.707 119 228.689 119Z" fill="white"/>
</mask>
<g mask="url(#mask5_183_226)">
<path fill-rule="evenodd" clip-rule="evenodd" d="M181.691 206.633C178.635 209.419 175.379 210.672 171.264 209.796C170.556 209.645 167.669 204.285 160.5 204.285C153.33 204.285 150.444 209.645 149.735 209.796C145.62 210.672 142.364 209.419 139.308 206.633C133.563 201.396 128.785 194.174 131.656 186.295C133.152 182.188 135.586 177.679 140.013 176.37C144.74 174.973 151.377 176.368 156.141 175.414C157.684 175.104 159.37 174.555 160.5 173.643C161.63 174.555 163.316 175.104 164.859 175.414C169.623 176.368 176.26 174.973 180.987 176.37C185.414 177.679 187.847 182.188 189.344 186.295C192.215 194.174 187.437 201.396 181.691 206.633ZM228.689 119C224.543 129.2 226.144 141.899 225.377 152.606C224.754 161.31 222.921 174.354 215.183 179.975C211.226 182.849 204.023 187.68 198.852 186.332C195.293 185.405 194.913 175.209 190.235 171.393C184.93 167.064 178.305 165.162 171.625 165.456C168.742 165.583 162.913 165.553 160.5 167.766C158.087 165.553 152.258 165.583 149.376 165.456C142.695 165.162 136.07 167.064 130.764 171.393C126.087 175.209 125.708 185.405 122.148 186.332C116.978 187.68 109.775 182.849 105.817 179.975C98.0782 174.354 96.2467 161.31 95.6226 152.606C94.8556 141.899 96.4571 129.2 92.3104 119C90.2931 119 91.6237 138.585 91.6237 138.585V163.303C91.6621 181.867 103.273 209.653 129.018 220.263C135.314 222.858 149.575 227.071 160.5 227.071C171.424 227.071 185.686 223.259 191.982 220.664C217.726 210.054 229.338 181.867 229.377 163.303V138.585C229.377 138.585 230.707 119 228.689 119Z" fill="#331B0C"/>
<path d="M340.454 87.4286H19.4545V383.714H340.454V87.4286Z" fill="#2C1B18"/>
</g>
<mask id="mask6_183_226" style="mask-type:alpha" maskUnits="userSpaceOnUse" x="91" y="42" width="139" height="79">
<path fill-rule="evenodd" clip-rule="evenodd" d="M91.1932 119C91.6149 120.807 93.2271 120.485 93.625 119C93.0624 117.113 97.6326 84.087 109.432 75.2857C113.831 72.2298 137.408 69.4959 160.88 69.5125C184.099 69.5289 207.216 72.2628 211.568 75.2857C223.367 84.087 227.938 117.113 227.375 119C227.773 120.485 229.385 120.807 229.807 119C230.681 106.495 229.807 41.6189 160.5 42.5C91.1932 43.3811 90.3187 106.495 91.1932 119Z" fill="white"/>
</mask>
<g mask="url(#mask6_183_226)">
<path fill-rule="evenodd" clip-rule="evenodd" d="M91.1932 119C91.6149 120.807 93.2271 120.485 93.625 119C93.0624 117.113 97.6326 84.087 109.432 75.2857C113.831 72.2298 137.408 69.4959 160.88 69.5125C184.099 69.5289 207.216 72.2628 211.568 75.2857C223.367 84.087 227.938 117.113 227.375 119C227.773 120.485 229.385 120.807 229.807 119C230.681 106.495 229.807 41.6189 160.5 42.5C91.1932 43.3811 90.3187 106.495 91.1932 119Z" fill="#28354B"/>
<path d="M410.977 41.2857H89.9773V381.286H410.977V41.2857Z" fill="#2C1B18"/>
</g>
</g>
</g>
</svg>
