<svg width="14" height="14" viewBox="0 0 14 14" fill="none" xmlns="http://www.w3.org/2000/svg">
<circle cx="7" cy="7" r="7" fill="#93FFF2"/>
<path d="M10.0692 4.75117L6.75677 6.76697L7.63535 8.21066L9.30898 7.19216C9.9191 8.19472 9.5181 9.26308 8.71615 9.75112C7.705 10.3665 6.21971 9.73162 5.36554 8.32803C4.48696 6.88433 4.60556 5.27342 5.61672 4.65807C6.24433 4.27613 6.97304 4.21735 7.87955 4.76477L8.13067 2.7435C6.96614 2.24318 5.7772 2.25231 4.48711 3.03741C2.4404 4.22801 2.14741 7.04413 3.5873 9.41019C5.0272 11.7763 7.76767 12.7463 9.72024 11.5581C11.1498 10.6881 12.1122 8.89342 11.2267 6.57467L10.104 4.72995L10.0692 4.75117Z" fill="black"/>
</svg>
