<?xml version="1.0" encoding="utf-8"?>
<!-- Generator: Adobe Illustrator 26.0.1, SVG Export Plug-In . SVG Version: 6.00 Build 0)  -->
<svg version="1.1" xmlns="http://www.w3.org/2000/svg" xmlns:xlink="http://www.w3.org/1999/xlink" x="0px" y="0px"
	 viewBox="0 0 116 22" style="enable-background:new 0 0 116 22;" xml:space="preserve">
<style type="text/css">
	.st0{fill:#93FFF2;}
</style>
<g id="Layer_1">
	<path d="M20.1,9.4h-9.5v3.6h4.8c0,2.5-2.2,4-4.5,4c-2.9,0-5.2-2.8-5.2-6.3c0-3.6,2.3-6.4,5.2-6.4c1.8,0,3.4,0.7,4.6,2.7l3.1-3.4
		c-1.8-2.2-4.3-3.5-8-3.5C4.8,0,0.6,4.8,0.6,10.7c0,5.9,4.5,10.7,10.1,10.7c4.1,0,8.4-2.2,9.5-7.4V9.4z M26.4,8.2H22v7.2
		c0,4.3,2.1,6,6.9,6s6.9-1.7,6.9-6V8.2h-4.4v6.1c0,2.5-0.7,3.5-2.5,3.5s-2.5-1-2.5-3.5V8.2z M44.1,7.8c-3.4,0-5.6,1.5-5.6,4.1
		c0,1.9,1.3,2.8,2.6,3.5c1.5,0.7,2.9,0.8,2.9,1.7c0,0.9-0.8,0.9-1.4,0.9c-1.4,0-3.2-1.5-3.2-1.5l-1.8,3c0,0,1.9,1.7,5,1.7
		c2.6,0,6.1-0.6,6.1-4.4c0-2.6-2.2-3.6-3.9-4.1c-1.1-0.3-2-0.5-2-1.2c0-0.6,0.4-0.8,1.4-0.8c1.4,0,2.9,0.8,2.9,0.8l1.4-2.9
		C48.4,8.8,46.6,7.8,44.1,7.8z M51.4,8.2h-1.9v3.4h1.9v4.9c0,2.3,0.8,4.9,4.4,4.9c1.8,0,3.2-0.8,3.2-0.8L57.9,17
		c0,0-0.5,0.4-1.1,0.4c-0.7,0-1-0.6-1-1.8v-4.1h2.7V8.2h-2.7V3.4h-4.4V8.2z M59.5,14.6c0,3.8,2.6,6.8,6.4,6.8c1.8,0,3.2-0.8,4.2-1.8
		h0V21h4.4V8.2h-4.4v1.2c-1.1-1-2.5-1.6-4.2-1.6C62.1,7.8,59.5,10.9,59.5,14.6z M64.2,14.6c0-1.8,1.3-3,3-3c1.6,0,3,1.2,3,3
		c0,1.8-1.2,3-3,3C65.4,17.6,64.2,16.4,64.2,14.6z M80.7,8.2h-5.2L82.3,21h3l6.9-12.8h-5.2l-3.1,7L80.7,8.2z"/>
</g>
<g id="Layer_2">
	<path class="st0" d="M92.2,14.6c0,3.9,3.1,6.8,7.7,6.8c4.4,0,7.6-2.8,7.6-6.8c0-4-3.4-6.8-7.6-6.8C95.6,7.8,92.2,10.6,92.2,14.6z"
		/>
</g>
</svg>
