<svg width="107" height="22" viewBox="0 0 107 22" fill="none" xmlns="http://www.w3.org/2000/svg">
<path d="M10 9.60308V13.2031H14.8C14.8 15.7031 12.6 17.2031 10.3 17.2031C7.4 17.2031 5.1 14.4031 5.1 10.9031C5.1 7.30308 7.4 4.50308 10.3 4.50308C12.1 4.50308 13.7 5.20308 14.9 7.20308L18 3.80308C16.2 1.60308 13.7 0.303079 10 0.303079C4.2 0.203079 0 5.00308 0 10.9031C0 16.8031 4.5 21.6031 10.1 21.6031C14.2 21.6031 18.5 19.4031 19.6 14.2031V9.60308H10ZM25.8 8.40308H21.4V15.6031C21.4 19.9031 23.5 21.6031 28.3 21.6031C33.1 21.6031 35.2 19.9031 35.2 15.6031V8.40308H30.8V14.5031C30.8 17.0031 30.1 18.0031 28.3 18.0031C26.5 18.0031 25.8 17.0031 25.8 14.5031V8.40308ZM43.5 8.00308C40.1 8.00308 37.9 9.50308 37.9 12.1031C37.9 14.0031 39.2 14.9031 40.5 15.6031C42 16.3031 43.4 16.4031 43.4 17.3031C43.4 18.2031 42.6 18.2031 42 18.2031C40.6 18.2031 38.8 16.7031 38.8 16.7031L37 19.7031C37 19.7031 38.9 21.4031 42 21.4031C44.6 21.4031 48.1 20.8031 48.1 17.0031C48.1 14.4031 45.9 13.4031 44.2 12.9031C43.1 12.6031 42.2 12.4031 42.2 11.7031C42.2 11.1031 42.6 10.9031 43.6 10.9031C45 10.9031 46.5 11.7031 46.5 11.7031L47.9 8.80308C47.8 9.00308 46 8.00308 43.5 8.00308ZM50.8 8.40308H48.9V11.8031H50.8V16.7031C50.8 19.0031 51.6 21.6031 55.2 21.6031C57 21.6031 58.4 20.8031 58.4 20.8031L57.3 17.2031C57.3 17.2031 56.8 17.6031 56.2 17.6031C55.5 17.6031 55.2 17.0031 55.2 15.8031V11.7031H57.9V8.40308H55.2V3.60308H50.8V8.40308ZM58.9 14.8031C58.9 18.6031 61.5 21.6031 65.3 21.6031C67.1 21.6031 68.5 20.8031 69.5 19.8031V21.2031H73.9V8.40308H69.5V9.60308C68.4 8.60308 67 8.00308 65.3 8.00308C61.5 8.00308 58.9 11.1031 58.9 14.8031ZM63.6 14.8031C63.6 13.0031 64.9 11.8031 66.6 11.8031C68.2 11.8031 69.6 13.0031 69.6 14.8031C69.6 16.6031 68.4 17.8031 66.6 17.8031C64.8 17.8031 63.6 16.6031 63.6 14.8031ZM80.1 8.40308H74.9L81.7 21.2031H84.7L91.6 8.40308H86.4L83.3 15.4031L80.1 8.40308Z" fill="#404040"/>
<path d="M91.6 14.8031C91.6 18.7031 94.7 21.6031 99.3 21.6031C103.7 21.6031 106.9 18.8031 106.9 14.8031C106.9 10.8031 103.5 8.00308 99.3 8.00308C95 8.00308 91.6 10.8031 91.6 14.8031Z" fill="#84E6DA"/>
</svg>
