<svg width="107" height="22" viewBox="0 0 107 22" fill="none" xmlns="http://www.w3.org/2000/svg">
<path d="M10 9.30153V12.9015H14.8C14.8 15.4015 12.6 16.9015 10.3 16.9015C7.4 16.9015 5.1 14.1015 5.1 10.6015C5.1 7.00153 7.4 4.20153 10.3 4.20153C12.1 4.20153 13.7 4.90153 14.9 6.90153L18 3.50153C16.2 1.30153 13.7 0.00153467 10 0.00153467C4.2 -0.0984653 0 4.70153 0 10.6015C0 16.5015 4.5 21.3015 10.1 21.3015C14.2 21.3015 18.5 19.1015 19.6 13.9015V9.30153H10ZM25.8 8.10153H21.4V15.3015C21.4 19.6015 23.5 21.3015 28.3 21.3015C33.1 21.3015 35.2 19.6015 35.2 15.3015V8.10153H30.8V14.2015C30.8 16.7015 30.1 17.7015 28.3 17.7015C26.5 17.7015 25.8 16.7015 25.8 14.2015V8.10153ZM43.5 7.70153C40.1 7.70153 37.9 9.20153 37.9 11.8015C37.9 13.7015 39.2 14.6015 40.5 15.3015C42 16.0015 43.4 16.1015 43.4 17.0015C43.4 17.9015 42.6 17.9015 42 17.9015C40.6 17.9015 38.8 16.4015 38.8 16.4015L37 19.4015C37 19.4015 38.9 21.1015 42 21.1015C44.6 21.1015 48.1 20.5015 48.1 16.7015C48.1 14.1015 45.9 13.1015 44.2 12.6015C43.1 12.3015 42.2 12.1015 42.2 11.4015C42.2 10.8015 42.6 10.6015 43.6 10.6015C45 10.6015 46.5 11.4015 46.5 11.4015L47.9 8.50154C47.8 8.70154 46 7.70153 43.5 7.70153ZM50.8 8.10153H48.9V11.5015H50.8V16.4015C50.8 18.7015 51.6 21.3015 55.2 21.3015C57 21.3015 58.4 20.5015 58.4 20.5015L57.3 16.9015C57.3 16.9015 56.8 17.3015 56.2 17.3015C55.5 17.3015 55.2 16.7015 55.2 15.5015V11.4015H57.9V8.10153H55.2V3.30153H50.8V8.10153ZM58.9 14.5015C58.9 18.3015 61.5 21.3015 65.3 21.3015C67.1 21.3015 68.5 20.5015 69.5 19.5015V20.9015H73.9V8.10153H69.5V9.30153C68.4 8.30153 67 7.70153 65.3 7.70153C61.5 7.70153 58.9 10.8015 58.9 14.5015ZM63.6 14.5015C63.6 12.7015 64.9 11.5015 66.6 11.5015C68.2 11.5015 69.6 12.7015 69.6 14.5015C69.6 16.3015 68.4 17.5015 66.6 17.5015C64.8 17.5015 63.6 16.3015 63.6 14.5015ZM80.1 8.10153H74.9L81.7 20.9015H84.7L91.6 8.10153H86.4L83.3 15.1015L80.1 8.10153Z" fill="black"/>
<path d="M91.6 14.5015C91.6 18.4015 94.7 21.3015 99.3 21.3015C103.7 21.3015 106.9 18.5015 106.9 14.5015C106.9 10.5015 103.5 7.70153 99.3 7.70153C95 7.70153 91.6 10.5015 91.6 14.5015Z" fill="#93FFF2"/>
</svg>
