<svg width="108" height="23" viewBox="0 0 108 23" fill="none" xmlns="http://www.w3.org/2000/svg">
<path d="M10.1029 9.90807V13.6261H14.9523C14.9523 16.2081 12.7297 17.7573 10.406 17.7573C7.47615 17.7573 5.15248 14.8655 5.15248 11.2507C5.15248 7.53266 7.47615 4.64085 10.406 4.64085C12.2245 4.64085 13.841 5.3638 15.0533 7.42938L18.1852 3.91789C16.3667 1.64576 13.841 0.303129 10.1029 0.303129C4.24322 0.19985 0 5.15724 0 11.2507C0 17.3442 4.5463 22.3015 10.2039 22.3015C14.3461 22.3015 18.6904 20.0294 19.8017 14.6589V9.90807H10.1029ZM26.0655 8.66872H21.6202V16.1048C21.6202 20.5458 23.7418 22.3015 28.5912 22.3015C33.4406 22.3015 35.5622 20.5458 35.5622 16.1048V8.66872H31.1169V14.9687C31.1169 17.5507 30.4097 18.5835 28.5912 18.5835C26.7727 18.5835 26.0655 17.5507 26.0655 14.9687V8.66872ZM43.9476 8.25561C40.5126 8.25561 38.29 9.80479 38.29 12.49C38.29 14.4523 39.6034 15.3819 40.9167 16.1048C42.4322 16.8278 43.8466 16.931 43.8466 17.8606C43.8466 18.7901 43.0384 18.7901 42.4322 18.7901C41.0178 18.7901 39.1993 17.2409 39.1993 17.2409L37.3807 20.3392C37.3807 20.3392 39.3003 22.095 42.4322 22.095C45.0589 22.095 48.595 21.4753 48.595 17.5507C48.595 14.8655 46.3723 13.8327 44.6548 13.3163C43.5435 13.0064 42.6342 12.7999 42.6342 12.0769C42.6342 11.4573 43.0384 11.2507 44.0486 11.2507C45.4631 11.2507 46.9785 12.0769 46.9785 12.0769L48.3929 9.08184C48.2919 9.2884 46.4733 8.25561 43.9476 8.25561ZM51.3227 8.66872H49.4032V12.1802H51.3227V17.2409C51.3227 19.6163 52.131 22.3015 55.768 22.3015C57.5865 22.3015 59.0009 21.4753 59.0009 21.4753L57.8896 17.7573C57.8896 17.7573 57.3845 18.1704 56.7783 18.1704C56.0711 18.1704 55.768 17.5507 55.768 16.3114V12.0769H58.4958V8.66872H55.768V3.71133H51.3227V8.66872ZM59.5061 15.2786C59.5061 19.2032 62.1328 22.3015 65.9719 22.3015C67.7905 22.3015 69.2049 21.4753 70.2152 20.4425V21.8884H74.6604V8.66872H70.2152V9.90807C69.1038 8.87528 67.6894 8.25561 65.9719 8.25561C62.1328 8.25561 59.5061 11.4573 59.5061 15.2786ZM64.2544 15.2786C64.2544 13.4196 65.5678 12.1802 67.2853 12.1802C68.9018 12.1802 70.3162 13.4196 70.3162 15.2786C70.3162 17.1376 69.1038 18.3769 67.2853 18.3769C65.4668 18.3769 64.2544 17.1376 64.2544 15.2786ZM80.9242 8.66872H75.6707L82.5407 21.8884H85.5716L92.5426 8.66872H87.2891L84.1572 15.8983L80.9242 8.66872Z" fill="#404040"/>
<path d="M92.5426 15.2786C92.5426 19.3065 95.6745 22.3015 100.322 22.3015C104.767 22.3015 108 19.4097 108 15.2786C108 11.1474 104.565 8.25561 100.322 8.25561C95.9776 8.25561 92.5426 11.1474 92.5426 15.2786Z" fill="#84E6DA"/>
</svg>
