<svg width="116" height="22" viewBox="0 0 116 22" fill="none" xmlns="http://www.w3.org/2000/svg">
<path d="M20.1 9.4H10.6V13H15.4C15.4 15.5 13.2 17 10.9 17C8 17 5.7 14.2 5.7 10.7C5.7 7.1 8 4.3 10.9 4.3C12.7 4.3 14.3 5 15.5 7L18.6 3.6C16.8 1.4 14.3 0.0999996 10.6 0.0999996C4.8 -3.65078e-07 0.599998 4.8 0.599998 10.7C0.599998 16.6 5.1 21.4 10.7 21.4C14.8 21.4 19.1 19.2 20.2 14V9.4H20.1ZM26.4 8.2H22V15.4C22 19.7 24.1 21.4 28.9 21.4C33.7 21.4 35.8 19.7 35.8 15.4V8.2H31.4V14.3C31.4 16.8 30.7 17.8 28.9 17.8C27.1 17.8 26.4 16.8 26.4 14.3V8.2ZM44.1 7.8C40.7 7.8 38.5 9.3 38.5 11.9C38.5 13.8 39.8 14.7 41.1 15.4C42.6 16.1 44 16.2 44 17.1C44 18 43.2 18 42.6 18C41.2 18 39.4 16.5 39.4 16.5L37.6 19.5C37.6 19.5 39.5 21.2 42.6 21.2C45.2 21.2 48.7 20.6 48.7 16.8C48.7 14.2 46.5 13.2 44.8 12.7C43.7 12.4 42.8 12.2 42.8 11.5C42.8 10.9 43.2 10.7 44.2 10.7C45.6 10.7 47.1 11.5 47.1 11.5L48.5 8.6C48.4 8.8 46.6 7.8 44.1 7.8ZM51.4 8.2H49.5V11.6H51.4V16.5C51.4 18.8 52.2 21.4 55.8 21.4C57.6 21.4 59 20.6 59 20.6L57.9 17C57.9 17 57.4 17.4 56.8 17.4C56.1 17.4 55.8 16.8 55.8 15.6V11.5H58.5V8.2H55.8V3.4H51.4V8.2ZM59.5 14.6C59.5 18.4 62.1 21.4 65.9 21.4C67.7 21.4 69.1 20.6 70.1 19.6V21H74.5V8.2H70.1V9.4C69 8.4 67.6 7.8 65.9 7.8C62.1 7.8 59.5 10.9 59.5 14.6ZM64.2 14.6C64.2 12.8 65.5 11.6 67.2 11.6C68.8 11.6 70.2 12.8 70.2 14.6C70.2 16.4 69 17.6 67.2 17.6C65.4 17.6 64.2 16.4 64.2 14.6ZM80.7 8.2H75.5L82.3 21H85.3L92.2 8.2H87L83.9 15.2L80.7 8.2Z" fill="black"/>
<path d="M92.2 14.6C92.2 18.5 95.3 21.4 99.9 21.4C104.3 21.4 107.5 18.6 107.5 14.6C107.5 10.6 104.1 7.8 99.9 7.8C95.6 7.8 92.2 10.6 92.2 14.6Z" fill="#93FFF2"/>
</svg>
