<svg width="264" height="280" viewBox="0 0 264 280" fill="none" xmlns="http://www.w3.org/2000/svg">
<mask id="mask0_245_135" style="mask-type:alpha" maskUnits="userSpaceOnUse" x="12" y="40" width="240" height="240">
<path d="M132 280C198.274 280 252 226.274 252 160C252 93.7258 198.274 40 132 40C65.7258 40 12 93.7258 12 160C12 226.274 65.7258 280 132 280Z" fill="white"/>
</mask>
<g mask="url(#mask0_245_135)">
<path d="M132 280C198.274 280 252 226.274 252 160C252 93.7258 198.274 40 132 40C65.7258 40 12 93.7258 12 160C12 226.274 65.7258 280 132 280Z" fill="#E6E6E6"/>
<path d="M252 40H12V280H252V40Z" fill="#93FFF2"/>
</g>
<mask id="mask1_245_135" style="mask-type:alpha" maskUnits="userSpaceOnUse" x="0" y="0" width="264" height="280">
<path d="M12 160C12 226.274 65.7258 280 132 280C198.274 280 252 226.274 252 160H264V0H0V160H12Z" fill="white"/>
</mask>
<g mask="url(#mask1_245_135)">
<mask id="mask2_245_135" style="mask-type:alpha" maskUnits="userSpaceOnUse" x="32" y="36" width="200" height="244">
<path d="M156 180.611V199H160C199.765 199 232 231.235 232 271V280H32V271C32 231.235 64.2355 199 104 199H108V180.611C90.7626 172.422 78.3722 155.687 76.3051 135.881C70.4803 135.058 66 130.052 66 124V110C66 104.054 70.3246 99.1181 76 98.1659V92C76 61.0721 101.072 36 132 36C162.928 36 188 61.0721 188 92V98.1659C193.675 99.1181 198 104.054 198 110V124C198 130.052 193.52 135.058 187.695 135.881C185.628 155.687 173.237 172.422 156 180.611Z" fill="white"/>
</mask>
<g mask="url(#mask2_245_135)">
<path d="M156 180.611V199H160C199.765 199 232 231.235 232 271V280H32V271C32 231.235 64.2355 199 104 199H108V180.611C90.7626 172.422 78.3722 155.687 76.3051 135.881C70.4803 135.058 66 130.052 66 124V110C66 104.054 70.3246 99.1181 76 98.1659V92C76 61.0721 101.072 36 132 36C162.928 36 188 61.0721 188 92V98.1659C193.675 99.1181 198 104.054 198 110V124C198 130.052 193.52 135.058 187.695 135.881C185.628 155.687 173.237 172.422 156 180.611Z" fill="#D0C6AC"/>
<path d="M296 36H32V316H296V36Z" fill="#D08B5B"/>
<path fill-rule="evenodd" clip-rule="evenodd" d="M188 115V138C188 168.928 162.928 194 132 194C101.072 194 76 168.928 76 138V115V130C76 160.928 101.072 186 132 186C162.928 186 188 160.928 188 130V115Z" fill="black" fill-opacity="0.1"/>
</g>
<mask id="mask3_245_135" style="mask-type:alpha" maskUnits="userSpaceOnUse" x="32" y="199" width="200" height="81">
<path fill-rule="evenodd" clip-rule="evenodd" d="M165.96 199.295C202.936 202.325 232 233.294 232 271.052V280H32V271.052C32 232.953 61.592 201.765 99.0454 199.22C99.0153 199.593 99 199.969 99 200.348C99 212.211 113.998 221.828 132.5 221.828C151.002 221.828 166 212.211 166 200.348C166 199.995 165.987 199.644 165.96 199.295Z" fill="white"/>
</mask>
<g mask="url(#mask3_245_135)">
<path fill-rule="evenodd" clip-rule="evenodd" d="M165.96 199.295C202.936 202.325 232 233.294 232 271.052V280H32V271.052C32 232.953 61.592 201.765 99.0454 199.22C99.0153 199.593 99 199.969 99 200.348C99 212.211 113.998 221.828 132.5 221.828C151.002 221.828 166 212.211 166 200.348C166 199.995 165.987 199.644 165.96 199.295Z" fill="#E6E6E6"/>
<path d="M264 170H0V280H264V170Z" fill="#262E33"/>
<g opacity="0.6">
<g opacity="0.6">
<path opacity="0.6" d="M132.5 228.762C154.39 228.762 172.135 216.712 172.135 201.848C172.135 186.984 154.39 174.934 132.5 174.934C110.61 174.934 92.8649 186.984 92.8649 201.848C92.8649 216.712 110.61 228.762 132.5 228.762Z" fill="black" fill-opacity="0.16"/>
</g>
</g>
</g>
<path fill-rule="evenodd" clip-rule="evenodd" d="M100.785 199.122C62.5123 200.804 32 232.364 32 271.052H32V280H101.362C97.9607 267.92 96 253.709 96 238.5C96 224.173 97.74 210.731 100.785 199.122ZM163.638 280H232V271.052C232 232.707 202.025 201.363 164.229 199.174C167.265 210.771 169 224.194 169 238.5C169 253.709 167.039 267.92 163.638 280Z" fill="#3A4C5A"/>
<path fill-rule="evenodd" clip-rule="evenodd" d="M181 256L190.556 248.833C191.999 247.751 193.988 247.768 195.412 248.876L202 254L181 256Z" fill="#E6E6E6"/>
<path fill-rule="evenodd" clip-rule="evenodd" d="M101 198C97 217.333 98.6667 244.667 106 280H90L76 244L82 235L76 229L95 199C97.0277 198.369 99.0277 198.036 101 198Z" fill="#2F4351"/>
<path fill-rule="evenodd" clip-rule="evenodd" d="M163 198C167 217.333 165.333 244.667 158 280H174L188 244L182 235L188 229L169 199C166.972 198.369 164.972 198.036 163 198Z" fill="#2F4351"/>
<path d="M118 150C118 155.372 124.158 159 132 159C139.842 159 146 155.372 146 150C146 148.895 145.05 148 144 148C142.707 148 142.13 148.905 142 150C140.758 152.938 137.683 154.716 132 155C126.317 154.716 123.242 152.938 122 150C121.87 148.905 121.293 148 120 148C118.95 148 118 148.895 118 150Z" fill="black" fill-opacity="0.6"/>
<path fill-rule="evenodd" clip-rule="evenodd" d="M120 130C120 134.418 125.373 138 132 138C138.627 138 144 134.418 144 130" fill="black" fill-opacity="0.16"/>
<path d="M106 126C113.732 126 120 119.732 120 112C120 104.268 113.732 98 106 98C98.268 98 92 104.268 92 112C92 119.732 98.268 126 106 126Z" fill="white"/>
<path d="M158 126C165.732 126 172 119.732 172 112C172 104.268 165.732 98 158 98C150.268 98 144 104.268 144 112C144 119.732 150.268 126 158 126Z" fill="white"/>
<path d="M106 118C109.314 118 112 115.314 112 112C112 108.686 109.314 106 106 106C102.686 106 100 108.686 100 112C100 115.314 102.686 118 106 118Z" fill="black" fill-opacity="0.7"/>
<path d="M158 118C161.314 118 164 115.314 164 112C164 108.686 161.314 106 158 106C154.686 106 152 108.686 152 112C152 115.314 154.686 118 158 118Z" fill="black" fill-opacity="0.7"/>
<path d="M91.9758 99.128C93.471 89.6048 106.059 83.1087 115.164 87.3011C116.167 87.7631 117.355 87.3242 117.817 86.3209C118.279 85.3176 117.84 84.1297 116.836 83.6677C105.349 78.3783 89.9357 86.3325 88.0242 98.5075C87.8529 99.5987 88.5986 100.622 89.6898 100.794C90.781 100.965 91.8045 100.219 91.9758 99.128Z" fill="black" fill-opacity="0.6"/>
<path d="M172.024 99.128C170.529 89.6048 157.942 83.1087 148.837 87.3011C147.833 87.7631 146.646 87.3242 146.184 86.3209C145.722 85.3176 146.16 84.1297 147.164 83.6677C158.651 78.3783 174.064 86.3325 175.976 98.5075C176.147 99.5987 175.402 100.622 174.31 100.794C173.219 100.965 172.196 100.219 172.024 99.128Z" fill="black" fill-opacity="0.6"/>
<mask id="mask4_245_135" style="mask-type:alpha" maskUnits="userSpaceOnUse" x="0" y="0" width="264" height="280">
<path d="M264 0H0V280H264V0Z" fill="white"/>
</mask>
<g mask="url(#mask4_245_135)">
<mask id="mask5_245_135" style="mask-type:alpha" maskUnits="userSpaceOnUse" x="58" y="18" width="148" height="195">
<path fill-rule="evenodd" clip-rule="evenodd" d="M66.4613 106.694C66.1609 107.744 66 108.853 66 110V123C66 129.019 70.4309 134.002 76.2086 134.867C77.9518 155.115 90.4692 172.283 108 180.611V199H104C88.381 199 73.9236 203.973 62.125 212.423C59.4527 204.777 58 196.558 58 188L58 92C58 51.1309 91.1309 18 132 18C172.869 18 206 51.1309 206 92V188C206 196.558 204.547 204.777 201.875 212.423C190.076 203.973 175.619 199 160 199H156V180.611C173.531 172.283 186.048 155.115 187.791 134.867C193.569 134.002 198 129.019 198 123V110C198 108.311 197.651 106.703 197.021 105.245C184.065 103.057 169.479 97.7686 155.149 89.4953C143.017 82.4911 132.646 74.2579 124.67 65.7522C128.096 73.6604 132.246 80.588 137.118 86.535C124.443 81.0121 115.813 72.1324 111.227 59.8961C110.849 60.818 110.456 61.7389 110.046 62.6582C100.207 84.7576 83.5911 100.682 66.4613 106.694Z" fill="white"/>
</mask>
<g mask="url(#mask5_245_135)">
<path fill-rule="evenodd" clip-rule="evenodd" d="M66.4613 106.694C66.1609 107.744 66 108.853 66 110V123C66 129.019 70.4309 134.002 76.2086 134.867C77.9518 155.115 90.4692 172.283 108 180.611V199H104C88.381 199 73.9236 203.973 62.125 212.423C59.4527 204.777 58 196.558 58 188L58 92C58 51.1309 91.1309 18 132 18C172.869 18 206 51.1309 206 92V188C206 196.558 204.547 204.777 201.875 212.423C190.076 203.973 175.619 199 160 199H156V180.611C173.531 172.283 186.048 155.115 187.791 134.867C193.569 134.002 198 129.019 198 123V110C198 108.311 197.651 106.703 197.021 105.245C184.065 103.057 169.479 97.7686 155.149 89.4953C143.017 82.4911 132.646 74.2579 124.67 65.7522C128.096 73.6604 132.246 80.588 137.118 86.535C124.443 81.0121 115.813 72.1324 111.227 59.8961C110.849 60.818 110.456 61.7389 110.046 62.6582C100.207 84.7576 83.5911 100.682 66.4613 106.694Z" fill="#ECC797"/>
<path d="M322 18H58V298H322V18Z" fill="#2C1B18"/>
</g>
<path fill-rule="evenodd" clip-rule="evenodd" d="M58 102.419V108.838C77.9454 105.75 98.5896 88.3902 110.046 62.6581C110.456 61.7388 110.849 60.8179 111.227 59.896C115.232 70.5821 122.321 78.7082 132.496 84.2742C133.957 86.4696 135.497 88.5565 137.118 90.5349C124.443 85.012 115.813 76.1324 111.227 63.896C110.849 64.8179 110.456 65.7388 110.046 66.6582C98.5896 92.3902 77.9454 109.75 58 112.838V102.419ZM206 101.14V110.281C191.047 109.413 172.901 103.745 155.149 93.4952C144.876 87.5643 135.866 80.7523 128.503 73.6397C127.138 71.1289 125.86 68.4997 124.67 65.7521C132.646 74.2579 143.017 82.491 155.149 89.4952C172.901 99.7446 191.047 105.413 206 106.281V101.14Z" fill="black" fill-opacity="0.16"/>
<g filter="url(#filter0_d_245_135)">
<path fill-rule="evenodd" clip-rule="evenodd" d="M141.465 101.394C145.38 93.4587 153.553 88 163 88C171.92 88 179.703 92.8659 183.84 100.088C184.05 100.031 184.272 100 184.5 100H192.5C193.881 100 195 101.119 195 102.5C195 103.881 193.881 105 192.5 105H185.963C186.637 107.215 187 109.565 187 112C187 125.255 176.255 136 163 136C149.745 136 139 125.255 139 112C139 110.578 139.124 109.185 139.361 107.831C139.276 103.455 135.914 100 131.862 100C128.126 100 124.975 102.94 124.442 106.83C124.807 108.495 125 110.225 125 112C125 125.255 114.255 136 101 136C87.7452 136 77 125.255 77 112C77 109.565 77.3626 107.215 78.0369 105H71.5C70.1193 105 69 103.881 69 102.5C69 101.119 70.1193 100 71.5 100H79.5C79.7285 100 79.9498 100.031 80.1601 100.088C84.2971 92.8659 92.0803 88 101 88C110.352 88 118.455 93.3492 122.416 101.155C124.493 98.0393 127.949 96 131.862 96C135.875 96 139.407 98.1441 141.465 101.394ZM101 132C112.046 132 121 123.046 121 112C121 100.954 112.046 92 101 92C89.9543 92 81 100.954 81 112C81 123.046 89.9543 132 101 132ZM163 132C174.046 132 183 123.046 183 112C183 100.954 174.046 92 163 92C151.954 92 143 100.954 143 112C143 123.046 151.954 132 163 132Z" fill="black"/>
</g>
<path fill-rule="evenodd" clip-rule="evenodd" d="M141.465 101.394C145.38 93.4587 153.553 88 163 88C171.92 88 179.703 92.8659 183.84 100.088C184.05 100.031 184.272 100 184.5 100H192.5C193.881 100 195 101.119 195 102.5C195 103.881 193.881 105 192.5 105H185.963C186.637 107.215 187 109.565 187 112C187 125.255 176.255 136 163 136C149.745 136 139 125.255 139 112C139 110.578 139.124 109.185 139.361 107.831C139.276 103.455 135.914 100 131.862 100C128.126 100 124.975 102.94 124.442 106.83C124.807 108.495 125 110.225 125 112C125 125.255 114.255 136 101 136C87.7452 136 77 125.255 77 112C77 109.565 77.3626 107.215 78.0369 105H71.5C70.1193 105 69 103.881 69 102.5C69 101.119 70.1193 100 71.5 100H79.5C79.7285 100 79.9498 100.031 80.1601 100.088C84.2971 92.8659 92.0803 88 101 88C110.352 88 118.455 93.3492 122.416 101.155C124.493 98.0393 127.949 96 131.862 96C135.875 96 139.407 98.1441 141.465 101.394ZM101 132C112.046 132 121 123.046 121 112C121 100.954 112.046 92 101 92C89.9543 92 81 100.954 81 112C81 123.046 89.9543 132 101 132ZM163 132C174.046 132 183 123.046 183 112C183 100.954 174.046 92 163 92C151.954 92 143 100.954 143 112C143 123.046 151.954 132 163 132Z" fill="#252C2F"/>
</g>
</g>
<defs>
<filter id="filter0_d_245_135" x="65" y="86" width="134" height="56" filterUnits="userSpaceOnUse" color-interpolation-filters="sRGB">
<feFlood flood-opacity="0" result="BackgroundImageFix"/>
<feColorMatrix in="SourceAlpha" type="matrix" values="0 0 0 0 0 0 0 0 0 0 0 0 0 0 0 0 0 0 127 0" result="hardAlpha"/>
<feOffset dy="2"/>
<feGaussianBlur stdDeviation="2"/>
<feColorMatrix type="matrix" values="0 0 0 0 0 0 0 0 0 0 0 0 0 0 0 0 0 0 0.1 0"/>
<feBlend mode="normal" in2="BackgroundImageFix" result="effect1_dropShadow_245_135"/>
<feBlend mode="normal" in="SourceGraphic" in2="effect1_dropShadow_245_135" result="shape"/>
</filter>
</defs>
</svg>
