<svg width="264" height="280" viewBox="0 0 264 280" fill="none" xmlns="http://www.w3.org/2000/svg">
<mask id="mask0_245_205" style="mask-type:alpha" maskUnits="userSpaceOnUse" x="12" y="40" width="240" height="240">
<path d="M132 280C198.274 280 252 226.274 252 160C252 93.7258 198.274 40 132 40C65.7258 40 12 93.7258 12 160C12 226.274 65.7258 280 132 280Z" fill="white"/>
</mask>
<g mask="url(#mask0_245_205)">
<path d="M132 280C198.274 280 252 226.274 252 160C252 93.7258 198.274 40 132 40C65.7258 40 12 93.7258 12 160C12 226.274 65.7258 280 132 280Z" fill="#E6E6E6"/>
<path d="M252 40H12V280H252V40Z" fill="#93FFF2"/>
</g>
<mask id="mask1_245_205" style="mask-type:alpha" maskUnits="userSpaceOnUse" x="0" y="0" width="264" height="280">
<path d="M12 160C12 226.274 65.7258 280 132 280C198.274 280 252 226.274 252 160H264V0H0V160H12Z" fill="white"/>
</mask>
<g mask="url(#mask1_245_205)">
<mask id="mask2_245_205" style="mask-type:alpha" maskUnits="userSpaceOnUse" x="32" y="36" width="200" height="244">
<path d="M156 180.611V199H160C199.765 199 232 231.235 232 271V280H32V271C32 231.235 64.2355 199 104 199H108V180.611C90.7626 172.422 78.3722 155.687 76.3051 135.881C70.4803 135.058 66 130.052 66 124V110C66 104.054 70.3246 99.1181 76 98.1659V92C76 61.0721 101.072 36 132 36C162.928 36 188 61.0721 188 92V98.1659C193.675 99.1181 198 104.054 198 110V124C198 130.052 193.52 135.058 187.695 135.881C185.628 155.687 173.237 172.422 156 180.611Z" fill="white"/>
</mask>
<g mask="url(#mask2_245_205)">
<path d="M156 180.611V199H160C199.765 199 232 231.235 232 271V280H32V271C32 231.235 64.2355 199 104 199H108V180.611C90.7626 172.422 78.3722 155.687 76.3051 135.881C70.4803 135.058 66 130.052 66 124V110C66 104.054 70.3246 99.1181 76 98.1659V92C76 61.0721 101.072 36 132 36C162.928 36 188 61.0721 188 92V98.1659C193.675 99.1181 198 104.054 198 110V124C198 130.052 193.52 135.058 187.695 135.881C185.628 155.687 173.237 172.422 156 180.611Z" fill="#D0C6AC"/>
<path d="M296 36H32V316H296V36Z" fill="#EDB98A"/>
<path fill-rule="evenodd" clip-rule="evenodd" d="M188 115V138C188 168.928 162.928 194 132 194C101.072 194 76 168.928 76 138V115V130C76 160.928 101.072 186 132 186C162.928 186 188 160.928 188 130V115Z" fill="black" fill-opacity="0.1"/>
</g>
<mask id="mask3_245_205" style="mask-type:alpha" maskUnits="userSpaceOnUse" x="32" y="199" width="200" height="81">
<path fill-rule="evenodd" clip-rule="evenodd" d="M165.624 199.268C202.76 202.137 232 233.18 232 271.052V280H32V271.052C32 232.835 61.7752 201.572 99.3929 199.197C99.1342 200.274 99 201.377 99 202.5C99 214.374 113.998 224 132.5 224C151.002 224 166 214.374 166 202.5C166 201.402 165.872 200.322 165.624 199.268L165.624 199.268Z" fill="white"/>
</mask>
<g mask="url(#mask3_245_205)">
<path fill-rule="evenodd" clip-rule="evenodd" d="M165.624 199.268C202.76 202.137 232 233.18 232 271.052V280H32V271.052C32 232.835 61.7752 201.572 99.3929 199.197C99.1342 200.274 99 201.377 99 202.5C99 214.374 113.998 224 132.5 224C151.002 224 166 214.374 166 202.5C166 201.402 165.872 200.322 165.624 199.268L165.624 199.268Z" fill="#E6E6E6"/>
<path d="M264 170H0V280H264V170Z" fill="#262E33"/>
<path fill-rule="evenodd" clip-rule="evenodd" d="M164.685 241.403C163.292 234.972 158.476 231.253 152.184 229.817C149.659 229.24 141.272 227.43 142.578 232.225C143.171 234.397 142.841 236.189 141.025 237.991C139.255 239.746 135.794 240.191 134.073 237.98C132.599 236.085 134.5 233.259 133.352 231.413C132.906 230.696 132.136 230.33 131.324 230.681C130.183 231.175 130.79 232.236 130.251 232.999C129.402 234.202 129.006 233.825 128.242 232.626C127.762 231.872 128.233 231.051 126.995 230.729C125.562 230.357 125.092 231.557 124.963 232.652C124.881 233.339 125.285 234.444 125.299 235.14C125.326 236.504 125.208 238.463 124.574 239.669C123.449 241.806 121.87 241.122 120.191 239.765C118.211 238.163 117.63 236.38 118.013 233.948C118.472 231.031 118.305 228.239 114.733 230.064C109.713 232.628 105.054 237.199 102.145 241.983C99.7 246.003 97.7757 250.876 99.9416 255.456C102.152 260.131 105.804 264.146 110.908 265.339C112.229 265.648 116 267.15 117.253 265.891C119.2 263.934 114.705 262.108 113.818 260.916C112.56 259.226 111.481 256.001 112.861 254.094C114.621 251.667 116.46 253.02 117.906 254.738C119.042 256.086 120.655 259.564 122.412 256.76C123.621 254.829 123.513 251.658 126.812 253.043C131.527 255.021 131.672 264.155 132.512 268.334C132.879 270.164 134.547 272.398 135.983 269.859C136.772 268.463 136.346 265.438 136.202 263.996C135.906 261.011 135.123 258.076 136.093 255.119C136.654 253.408 138.093 250.959 140.222 252.275C141.947 253.341 141.228 258.091 143.575 258.082C145.641 258.075 145.077 254.291 146.178 253.043C147.857 251.139 151.094 252.044 152.087 254.292C153.424 257.317 149.885 259.418 150.044 262.077C150.198 264.668 153.538 263.657 154.935 263C157.806 261.649 160.053 259.147 161.61 256.429C164.017 252.225 165.735 246.207 164.685 241.403Z" fill="white"/>
</g>
<mask id="mask4_245_205" style="mask-type:alpha" maskUnits="userSpaceOnUse" x="113" y="147" width="38" height="19">
<path fill-rule="evenodd" clip-rule="evenodd" d="M113.118 149.128C114.176 158.62 122.226 166 132 166C141.804 166 149.874 158.574 150.892 149.04C150.974 148.273 150.117 147 149.043 147C134.149 147 122.738 147 115.087 147C114.007 147 113.012 148.178 113.118 149.128Z" fill="white"/>
</mask>
<g mask="url(#mask4_245_205)">
<path fill-rule="evenodd" clip-rule="evenodd" d="M113.118 149.128C114.176 158.62 122.226 166 132 166C141.804 166 149.874 158.574 150.892 149.04C150.974 148.273 150.117 147 149.043 147C134.149 147 122.738 147 115.087 147C114.007 147 113.012 148.178 113.118 149.128Z" fill="black" fill-opacity="0.7"/>
<path d="M143 136H122C119.239 136 117 138.239 117 141V147C117 149.761 119.239 152 122 152H143C145.761 152 148 149.761 148 147V141C148 138.239 145.761 136 143 136Z" fill="white"/>
<path d="M127 180C133.075 180 138 175.075 138 169C138 162.925 133.075 158 127 158C120.925 158 116 162.925 116 169C116 175.075 120.925 180 127 180Z" fill="#FF4F6D"/>
<path d="M137 180C143.075 180 148 175.075 148 169C148 162.925 143.075 158 137 158C130.925 158 126 162.925 126 169C126 175.075 130.925 180 137 180Z" fill="#FF4F6D"/>
</g>
<path fill-rule="evenodd" clip-rule="evenodd" d="M120 130C120 134.418 125.373 138 132 138C138.627 138 144 134.418 144 130" fill="black" fill-opacity="0.16"/>
<path d="M106 118C109.314 118 112 115.314 112 112C112 108.686 109.314 106 106 106C102.686 106 100 108.686 100 112C100 115.314 102.686 118 106 118Z" fill="black" fill-opacity="0.6"/>
<path d="M158 118C161.314 118 164 115.314 164 112C164 108.686 161.314 106 158 106C154.686 106 152 108.686 152 112C152 115.314 154.686 118 158 118Z" fill="black" fill-opacity="0.6"/>
<path fill-rule="evenodd" clip-rule="evenodd" d="M102.547 88.1482C96.7404 88.4165 87.3523 92.6361 87.5942 98.492C87.6022 98.6837 87.8837 98.7678 88.0213 98.6204C90.7762 95.6611 110.337 92.6707 117.226 94.2554C117.857 94.4007 118.336 93.7786 117.936 93.3293C114.514 89.481 107.75 87.9029 102.547 88.1482Z" fill="black" fill-opacity="0.6"/>
<path fill-rule="evenodd" clip-rule="evenodd" d="M162.453 88.1482C168.26 88.4165 177.648 92.6361 177.406 98.492C177.398 98.6837 177.116 98.7679 176.979 98.6204C174.224 95.6611 154.664 92.6708 147.774 94.2554C147.143 94.4007 146.664 93.7786 147.064 93.3293C150.486 89.481 157.25 87.9029 162.453 88.1482Z" fill="black" fill-opacity="0.6"/>
<mask id="mask5_245_205" style="mask-type:alpha" maskUnits="userSpaceOnUse" x="0" y="0" width="264" height="280">
<path d="M264 0H0V280H264V0Z" fill="white"/>
</mask>
<g mask="url(#mask5_245_205)">
<mask id="mask6_245_205" style="mask-type:alpha" maskUnits="userSpaceOnUse" x="72" y="19" width="118" height="82">
<path fill-rule="evenodd" clip-rule="evenodd" d="M185.832 73.9287C187.589 74.9174 188.98 84.8279 189.048 88.6177C189.09 90.9562 189.127 99.874 186.654 99.1031C185.901 98.8684 184.752 94.1472 184.588 91.3841C184.425 88.6209 182.855 79.22 180.447 74.8947C179.896 73.9063 178.321 72.1709 179.002 71.3348C179.846 70.2981 180.666 70.8996 181.697 71.3147C182.812 71.7642 185.634 73.818 185.832 73.9287ZM186.637 70.9566C185.891 71.9188 180.796 69.2177 178.671 68.044C160.826 58.1841 157.362 55.0487 129.246 55.4578C101.13 55.867 81.8675 69.04 80.784 70.3874C80.0302 71.3249 79.0678 73.8279 78.2764 80.8005C77.485 87.7732 78.4952 100.278 75.6305 100.263C73.1915 100.25 72.6609 76.477 73.7137 67.0464C73.8754 65.5985 74.4984 63.0084 74.0474 61.7059C73.6533 60.5682 71.7254 60.5706 72.0331 58.6751C72.3829 56.5173 74.5585 57.5891 75.506 56.5574C77.3006 54.603 74.5322 54.1404 74.073 52.4307C73.3906 49.8892 75.3628 49.2337 77.1397 48.4311C79.106 47.5438 78.8505 48.3231 80.4464 46.5849C78.3148 45.0225 77.5436 42.8939 80.4624 41.752C81.702 41.2669 84.9269 41.9089 85.8981 41.1802C86.1513 40.9901 86.2515 39.9008 86.4075 39.678C87.9584 37.4594 87.5757 35.8532 87.4184 33.3624C87.289 31.3242 87.3064 29.4532 89.7467 29.2496C91.3751 29.1139 92.6993 30.4442 94.1582 30.8359C95.7768 31.2706 95.1688 31.5878 96.4369 30.715C98.6631 29.1817 97.148 26.1943 98.9133 24.412C101.336 21.9662 102.924 25.5513 104.869 25.8218C109.091 26.4102 107.736 22.1219 110.236 20.5505C113.224 18.6739 113.513 22.8013 115.379 22.9483C116.996 23.0751 119.908 19.9545 121.317 19.3731C125.5 17.6472 127.572 22.5039 131.554 21.8845C134.443 21.4348 135.223 21.0677 137.831 22.7115C140.362 24.3071 140.963 23.1665 143.829 23.1436C145.854 23.1284 147.094 24.8203 148.788 24.9967C149.632 25.0851 150.441 24.2051 151.348 24.2604C154.585 24.4567 154.79 28.643 157.362 29.7956C159.712 30.8488 162.474 29.3691 164.807 29.0953C170.497 28.4275 166.6 33.7425 166.761 36.9147C168.994 37.4359 171.262 35.351 173.485 35.7347C176.987 36.3393 175.665 39.968 174.853 42.4145C177.28 42.3708 183.613 39.6777 185.185 43.122C185.995 44.898 184.107 47.269 184.138 49.0744C184.181 51.6159 186.049 53.7186 186.709 56.124C187.601 59.371 188.872 68.074 186.637 70.9566Z" fill="white"/>
</mask>
<g mask="url(#mask6_245_205)">
<path fill-rule="evenodd" clip-rule="evenodd" d="M185.832 73.9287C187.589 74.9174 188.98 84.8279 189.048 88.6177C189.09 90.9562 189.127 99.874 186.654 99.1031C185.901 98.8684 184.752 94.1472 184.588 91.3841C184.425 88.6209 182.855 79.22 180.447 74.8947C179.896 73.9063 178.321 72.1709 179.002 71.3348C179.846 70.2981 180.666 70.8996 181.697 71.3147C182.812 71.7642 185.634 73.818 185.832 73.9287ZM186.637 70.9566C185.891 71.9188 180.796 69.2177 178.671 68.044C160.826 58.1841 157.362 55.0487 129.246 55.4578C101.13 55.867 81.8675 69.04 80.784 70.3874C80.0302 71.3249 79.0678 73.8279 78.2764 80.8005C77.485 87.7732 78.4952 100.278 75.6305 100.263C73.1915 100.25 72.6609 76.477 73.7137 67.0464C73.8754 65.5985 74.4984 63.0084 74.0474 61.7059C73.6533 60.5682 71.7254 60.5706 72.0331 58.6751C72.3829 56.5173 74.5585 57.5891 75.506 56.5574C77.3006 54.603 74.5322 54.1404 74.073 52.4307C73.3906 49.8892 75.3628 49.2337 77.1397 48.4311C79.106 47.5438 78.8505 48.3231 80.4464 46.5849C78.3148 45.0225 77.5436 42.8939 80.4624 41.752C81.702 41.2669 84.9269 41.9089 85.8981 41.1802C86.1513 40.9901 86.2515 39.9008 86.4075 39.678C87.9584 37.4594 87.5757 35.8532 87.4184 33.3624C87.289 31.3242 87.3064 29.4532 89.7467 29.2496C91.3751 29.1139 92.6993 30.4442 94.1582 30.8359C95.7768 31.2706 95.1688 31.5878 96.4369 30.715C98.6631 29.1817 97.148 26.1943 98.9133 24.412C101.336 21.9662 102.924 25.5513 104.869 25.8218C109.091 26.4102 107.736 22.1219 110.236 20.5505C113.224 18.6739 113.513 22.8013 115.379 22.9483C116.996 23.0751 119.908 19.9545 121.317 19.3731C125.5 17.6472 127.572 22.5039 131.554 21.8845C134.443 21.4348 135.223 21.0677 137.831 22.7115C140.362 24.3071 140.963 23.1665 143.829 23.1436C145.854 23.1284 147.094 24.8203 148.788 24.9967C149.632 25.0851 150.441 24.2051 151.348 24.2604C154.585 24.4567 154.79 28.643 157.362 29.7956C159.712 30.8488 162.474 29.3691 164.807 29.0953C170.497 28.4275 166.6 33.7425 166.761 36.9147C168.994 37.4359 171.262 35.351 173.485 35.7347C176.987 36.3393 175.665 39.968 174.853 42.4145C177.28 42.3708 183.613 39.6777 185.185 43.122C185.995 44.898 184.107 47.269 184.138 49.0744C184.181 51.6159 186.049 53.7186 186.709 56.124C187.601 59.371 188.872 68.074 186.637 70.9566Z" fill="#2E3257"/>
<path d="M264 0H0V280H264V0Z" fill="#724133"/>
</g>
<g filter="url(#filter0_d_245_205)">
<path fill-rule="evenodd" clip-rule="evenodd" d="M115.249 100.275C117.621 100.297 118.742 100.692 119.146 103.165C119.555 105.67 119.157 108.487 118.685 110.955C117.965 114.723 116.767 118.414 113.978 121.168C112.508 122.619 110.717 123.775 108.811 124.564C107.799 124.983 106.73 125.286 105.661 125.516C105.349 125.583 102.682 125.95 104.318 125.763C100.501 126.199 96.3601 126.182 93.1724 123.752C89.6396 121.06 87.2203 116.8 86.1565 112.556C85.5341 110.073 84.2263 104.134 86.6159 102.149C89.3532 99.8745 115.249 100.275 115.249 100.275ZM91.2178 93.4905C85.7775 93.6778 82.1467 94.6338 79.4633 100.069C74.5457 110.03 82.9628 124.969 92.3523 129.039C103.329 133.799 115.592 128.532 121.396 119.006C124.469 113.962 126.022 106.323 125.922 100.504C125.795 93.0765 120.607 92.8705 114.509 93.0338L91.2178 93.4905Z" fill="#D6EAF2"/>
<path fill-rule="evenodd" clip-rule="evenodd" d="M148.68 100.272C146.309 100.295 145.188 100.689 144.784 103.162C144.374 105.668 144.772 108.484 145.244 110.952C145.965 114.72 147.163 118.412 149.952 121.166C151.421 122.616 153.213 123.772 155.119 124.562C156.131 124.981 157.2 125.283 158.268 125.513C158.581 125.58 161.247 125.948 159.612 125.761C163.429 126.196 167.57 126.179 170.757 123.75C174.29 121.057 176.709 116.797 177.773 112.554C178.396 110.07 179.703 104.132 177.314 102.146C174.576 99.8718 148.68 100.272 148.68 100.272ZM172.712 93.4878C178.152 93.6751 181.783 94.6315 184.466 100.066C189.384 110.027 180.967 124.966 171.577 129.037C160.6 133.796 148.337 128.529 142.534 119.003C139.461 113.959 137.907 106.32 138.007 100.501C138.135 93.0738 143.322 92.8678 149.421 93.0315L172.712 93.4878Z" fill="#D6EAF2"/>
<path fill-rule="evenodd" clip-rule="evenodd" d="M82.197 97.9268C78.785 98.1185 74.8861 98.1645 71.6901 99.6395C68.3054 101.202 67.7824 104.739 72.0492 105.226C73.971 105.446 75.8949 105.083 77.7872 104.745C79.3369 104.469 81.442 104.558 82.9065 103.966C85.6355 102.863 85.4604 97.7402 82.197 97.9268Z" fill="#D6EAF2"/>
<path fill-rule="evenodd" clip-rule="evenodd" d="M181.735 97.9268C185.147 98.1185 189.046 98.1645 192.242 99.6395C195.626 101.202 196.149 104.739 191.882 105.226C189.961 105.446 188.037 105.083 186.144 104.745C184.595 104.469 182.49 104.558 181.025 103.966C178.296 102.863 178.471 97.7402 181.735 97.9268Z" fill="#D6EAF2"/>
<path fill-rule="evenodd" clip-rule="evenodd" d="M142.109 100.013C140.163 97.7128 135.091 96.3848 131.891 96.3848C128.691 96.3848 123.768 97.7128 121.822 100.013C120.841 101.172 120.807 102.724 122.508 103.451C124.626 104.357 126.517 102.714 128.213 101.855C130.381 100.757 133.712 100.877 135.719 101.855C137.427 102.688 139.305 104.357 141.423 103.451C143.124 102.724 143.091 101.172 142.109 100.013Z" fill="#D6EAF2"/>
</g>
</g>
</g>
<defs>
<filter id="filter0_d_245_205" x="65" y="91" width="133.932" height="45.8203" filterUnits="userSpaceOnUse" color-interpolation-filters="sRGB">
<feFlood flood-opacity="0" result="BackgroundImageFix"/>
<feColorMatrix in="SourceAlpha" type="matrix" values="0 0 0 0 0 0 0 0 0 0 0 0 0 0 0 0 0 0 127 0" result="hardAlpha"/>
<feOffset dy="2"/>
<feGaussianBlur stdDeviation="2"/>
<feColorMatrix type="matrix" values="0 0 0 0 0 0 0 0 0 0 0 0 0 0 0 0 0 0 0.2 0"/>
<feBlend mode="normal" in2="BackgroundImageFix" result="effect1_dropShadow_245_205"/>
<feBlend mode="normal" in="SourceGraphic" in2="effect1_dropShadow_245_205" result="shape"/>
</filter>
</defs>
</svg>
