<svg width="73" height="15" viewBox="0 0 73 15" fill="none" xmlns="http://www.w3.org/2000/svg">
<path d="M6.82881 6.5499V9.08493H10.1066C10.1066 10.8454 8.6043 11.9016 7.03368 11.9016C5.05332 11.9016 3.48269 9.92994 3.48269 7.46533C3.48269 4.9303 5.05332 2.95861 7.03368 2.95861C8.26286 2.95861 9.35547 3.45154 10.1749 4.85989L12.2919 2.46569C11.0627 0.916508 9.35547 0.00108068 6.82881 0.00108068C2.8681 -0.0693368 0 3.3107 0 7.46533C0 11.62 3.07296 15 6.8971 15C9.69691 15 12.6333 13.4508 13.3845 9.78911V6.5499H6.82881ZM17.6183 5.7049H14.6137V10.775C14.6137 13.8029 16.0477 15 19.3255 15C22.6034 15 24.0374 13.8029 24.0374 10.775V5.7049H21.0327V10.0004C21.0327 11.7608 20.5547 12.465 19.3255 12.465C18.0964 12.465 17.6183 11.7608 17.6183 10.0004V5.7049ZM29.7053 5.42323C27.3835 5.42323 25.8812 6.47949 25.8812 8.31034C25.8812 9.64827 26.7689 10.282 27.6567 10.775C28.681 11.2679 29.637 11.3383 29.637 11.972C29.637 12.6058 29.0907 12.6058 28.681 12.6058C27.725 12.6058 26.4958 11.5495 26.4958 11.5495L25.2666 13.6621C25.2666 13.6621 26.5641 14.8592 28.681 14.8592C30.4565 14.8592 32.8466 14.4367 32.8466 11.7608C32.8466 9.92994 31.3442 9.22577 30.1833 8.87368C29.4322 8.66243 28.8176 8.52159 28.8176 8.02867C28.8176 7.60617 29.0907 7.46533 29.7736 7.46533C30.7297 7.46533 31.754 8.02867 31.754 8.02867L32.71 5.98657C32.6417 6.1274 31.4125 5.42323 29.7053 5.42323ZM34.6904 5.7049H33.3929V8.09909H34.6904V11.5495C34.6904 13.1691 35.2367 15 37.695 15C38.9242 15 39.8803 14.4367 39.8803 14.4367L39.1291 11.9016C39.1291 11.9016 38.7877 12.1833 38.3779 12.1833C37.8999 12.1833 37.695 11.7608 37.695 10.9158V8.02867H39.5388V5.7049H37.695V2.32486H34.6904V5.7049ZM40.2217 10.2116C40.2217 12.8875 41.9972 15 44.5921 15C45.8213 15 46.7774 14.4367 47.4602 13.7325V14.7183H50.4649V5.7049H47.4602V6.5499C46.7091 5.84573 45.753 5.42323 44.5921 5.42323C41.9972 5.42323 40.2217 7.60617 40.2217 10.2116ZM43.4312 10.2116C43.4312 8.9441 44.319 8.09909 45.4799 8.09909C46.5725 8.09909 47.5285 8.9441 47.5285 10.2116C47.5285 11.4791 46.7091 12.3241 45.4799 12.3241C44.2507 12.3241 43.4312 11.4791 43.4312 10.2116ZM54.6988 5.7049H51.1478L55.7914 14.7183H57.84L62.5519 5.7049H59.0009L56.884 10.6341L54.6988 5.7049Z" fill="black"/>
<path d="M62.5519 10.2116C62.5519 12.9579 64.6688 15 67.8101 15C70.8148 15 73 13.0283 73 10.2116C73 7.39492 70.6782 5.42323 67.8101 5.42323C64.8737 5.42323 62.5519 7.39492 62.5519 10.2116Z" fill="#93FFF2"/>
</svg>
