<svg width="18" height="18" viewBox="0 0 18 18" fill="none" xmlns="http://www.w3.org/2000/svg">
<path d="M2.39913 0C1.07723 0 0.000967865 1.07758 0 2.40238C0 3.72718 1.07627 4.80496 2.39913 4.80496C3.72151 4.80496 4.79722 3.72718 4.79722 2.40238C4.79722 1.07772 3.72144 0 2.39913 0Z" fill="black"/>
<path d="M4.1997 5.77025H0.598279C0.426967 5.77025 0.288009 5.90933 0.288009 6.08102V17.6893C0.288009 17.8609 0.426967 18 0.598279 18H4.19963C4.37101 18 4.50997 17.8608 4.50997 17.6893V6.08102C4.51004 5.90926 4.37108 5.77025 4.1997 5.77025Z" fill="black"/>
<path d="M13.4066 5.63358C12.0886 5.63358 10.9304 6.03547 10.2237 6.69081V6.08102C10.2237 5.90933 10.0847 5.77024 9.91335 5.77024H6.4587C6.28732 5.77024 6.14836 5.90933 6.14836 6.08102V17.6893C6.14836 17.8609 6.28732 18 6.4587 18H10.0567C10.228 18 10.367 17.8608 10.367 17.6893V11.9461C10.367 10.2983 10.6697 9.27692 12.1802 9.27692C13.6683 9.27872 13.7797 10.374 13.7797 12.0446V17.6893C13.7797 17.8609 13.9187 18 14.0901 18H17.6897C17.861 18 18 17.8608 18 17.6893V11.3217C17.9999 8.67337 17.4778 5.63358 13.4066 5.63358Z" fill="black"/>
</svg>
